<svg width="24" height="24" viewBox="0 0 24 24" fill="none" xmlns="http://www.w3.org/2000/svg">
  <path d="M12 8.4a3.6 3.6 0 1 0 0 7.2 3.6 3.6 0 0 0 0-7.2Z" stroke="#FFD400" stroke-width="1.7"/>
  <path d="M18.5 13.3c.1-.4.1-.8.1-1.3s0-.9-.1-1.3l2-1.5-2-3.4-2.4 1a7 7 0 0 0-2.2-1.3L13.5 3h-3l-.4 2.5c-.8.3-1.5.7-2.2 1.3l-2.4-1-2 3.4 2 1.5c-.1.4-.1.8-.1 1.3s0 .9.1 1.3l-2 1.5 2 3.4 2.4-1c.7.6 1.4 1 2.2 1.3l.4 2.5h3l.4-2.5c.8-.3 1.5-.7 2.2-1.3l2.4 1 2-3.4-2-1.5Z" stroke="#FFD400" stroke-width="1.4" stroke-linejoin="round"/>
</svg>
